<?xml version="1.0" encoding="UTF-8"?>
<!DOCTYPE svg  PUBLIC '-//W3C//DTD SVG 1.1//EN'  'http://www.w3.org/Graphics/SVG/1.1/DTD/svg11.dtd'>
<svg enable-background="new 0 0 460 550" version="1.1" viewBox="0 0 460 550" xml:space="preserve" xmlns="http://www.w3.org/2000/svg">
<g fill="#bea477">
	<circle cx="105" cy="112" r="8.6"/>
	<circle cx="182" cy="95" r="8.6"/>
	<path d="m412.7 39.522c10.872 16.794 18.063 35.141 3 55-13.565-4.295-18.154-20.093-21-38l-26 47c16.31-7.443 31.082-15.262 42-1.522-16.575 22.95-62.557 49.67-76.406 11.272 1.448-2.147 2.57-4.648 3.219-7.406 1.362-5.795 0.396-11.507-2.25-15.75 11.794-30.673 27.828-20.376 36.906-5.719 0.546-16.316 2.55-38.864-32.094-17.406 7.512-17.968 4.772-48.205 1.656-48.938-3.117-0.732-19.065 25.129-20.344 44.563-21.458-34.644-29.721-13.57-36.5 1.281 14.657-9.078 33.636-11.153 30.531 21.563-4.259 2.62-7.7 7.298-9.063 13.094-0.644 2.739-0.77 5.448-0.438 8-39.217 13.446-49.217 3.446-69.217-36.554v-17.494c2-0.506 2-1.506 2.5-3.5 19.124-0.11 25.949 11.557 33.5 23.516v-53c-7.44 13.603-16.032 23.333-33.5 22.484-0.5-2.006-0.5-3.006-2.5-3.5 2.71-18.246 10.181-26.241 28-34.984l-33.7-0.016h-0.3l-33.7 0.016c17.819 8.744 25.29 16.738 28 34.984-2 0.494-2 1.494-2.5 3.5-17.468 0.849-26.061-8.881-33.5-22.484v53c7.55-11.959 14.376-23.625 33.5-23.516 0.5 1.994 0.5 2.994 2.5 3.5v17.494c-20 40-30 50-69.219 36.553 0.332-2.552 0.206-5.261-0.438-8-1.362-5.795-4.803-10.474-9.063-13.094-3.105-32.715 15.874-30.641 30.531-21.563-6.78-14.851-15.042-35.925-36.5-1.281-1.279-19.433-17.227-45.295-20.344-44.563-3.117 0.733-5.856 30.97 1.656 48.938-34.644-21.458-32.64 1.09-32.094 17.406 9.079-14.657 25.112-24.954 36.906 5.719-2.646 4.243-3.612 9.955-2.25 15.75 0.648 2.758 1.77 5.259 3.219 7.406-13.847 38.399-59.829 11.679-76.404-11.271 10.918-13.74 25.69-5.921 42 1.522l-26-47c-2.846 17.907-7.435 33.705-21 38-15.063-19.859-7.873-38.206 3-55l-35 20 67 115c43.636-28.458 96.889-41.869 149.7-41.018v2e-3c0.05-1e-3 0.1 0 0.149-1e-3 0.051 1e-3 0.101 0 0.15 1e-3v-2e-3c52.811-0.851 106.06 12.56 149.7 41.018l67-115-34.999-20z"/>
	<circle cx="356.7" cy="112" r="8.6"/>
	<circle cx="279.7" cy="95" r="8.6"/>
</g>
<path d="m231 166.52h-158v351h17s25-66 25-71c0-1.392-2-2-8-2v-35.001h35v37.001h-8l26 67 26-67h-8v-37.001h35v37.001h-8l25.7 66.228v0.772l0.149-0.387 0.15 0.387v-0.772l25.7-66.228h-8v-37.001h35v37.001h-8l26 67 26-67h-8v-37.001h35v35.001c-6 0-8 0.608-8 2 0 5 25 71 25 71h17v-351h-157.7zm-141 234c-4.968 0-9-4.031-9-9 0-4.967 4.032-9 9-9s9 4.033 9 9c0 4.969-4.032 9-9 9zm0-71c-4.968 0-9-4.031-9-9 0-4.967 4.032-9 9-9s9 4.033 9 9c0 4.969-4.032 9-9 9zm0-68.999c-4.968 0-9-4.032-9-9s4.032-9 9-9 9 4.032 9 9-4.032 9-9 9zm0-67c-4.968 0-9-4.032-9-9s4.032-9 9-9 9 4.032 9 9-4.032 9-9 9zm52 180h-35v-35h35v35zm0-71h-35v-32h35v32zm0-67.999h-35v-32h35v32zm18 166c-4.968 0-9-4.031-9-9 0-4.967 4.032-9 9-9s9 4.033 9 9c0 4.969-4.032 9-9 9zm0-71c-4.968 0-9-4.031-9-9 0-4.967 4.032-9 9-9s9 4.033 9 9c0 4.969-4.032 9-9 9zm0-68.999c-4.968 0-9-4.032-9-9s4.032-9 9-9 9 4.032 9 9-4.032 9-9 9zm0-67c-4.968 0-9-4.032-9-9s4.032-9 9-9 9 4.032 9 9-4.032 9-9 9zm53 180h-35v-35h35v35zm0-71h-35v-32h35v32zm0-67.999h-35v-32h35v32zm17.85 165.99c-4.897-0.081-8.85-4.074-8.85-8.992 0-4.916 3.952-8.911 8.85-8.992 4.898 0.081 8.851 4.076 8.851 8.992-1e-3 4.917-3.953 8.911-8.851 8.992zm0-71c-4.897-0.081-8.85-4.074-8.85-8.992 0-4.916 3.952-8.911 8.85-8.992 4.898 0.081 8.851 4.076 8.851 8.992-1e-3 4.917-3.953 8.911-8.851 8.992zm0-68.999c-4.897-0.081-8.85-4.075-8.85-8.993 0-4.917 3.952-8.912 8.85-8.993 4.898 0.081 8.851 4.076 8.851 8.993-1e-3 4.917-3.953 8.912-8.851 8.993zm0-67c-4.897-0.081-8.85-4.075-8.85-8.993 0-4.917 3.952-8.912 8.85-8.993 4.898 0.081 8.851 4.076 8.851 8.993-1e-3 4.917-3.953 8.912-8.851 8.993zm52.85 180.01h-35v-35h35v35zm0-71h-35v-32h35v32zm0-67.999h-35v-32h35v32zm18 166c-4.968 0-9-4.031-9-9 0-4.967 4.032-9 9-9s9 4.033 9 9c0 4.969-4.032 9-9 9zm0-71c-4.968 0-9-4.031-9-9 0-4.967 4.032-9 9-9s9 4.033 9 9c0 4.969-4.032 9-9 9zm0-68.999c-4.968 0-9-4.032-9-9s4.032-9 9-9 9 4.032 9 9-4.032 9-9 9zm0-67c-4.968 0-9-4.032-9-9s4.032-9 9-9 9 4.032 9 9-4.032 9-9 9zm53 180h-35v-35h35v35zm0-71h-35v-32h35v32zm0-67.999h-35v-32h35v32zm17 166c-4.968 0-9-4.031-9-9 0-4.967 4.032-9 9-9s9 4.033 9 9c0 4.969-4.032 9-9 9zm0-71c-4.968 0-9-4.031-9-9 0-4.967 4.032-9 9-9s9 4.033 9 9c0 4.969-4.032 9-9 9zm0-68.999c-4.968 0-9-4.032-9-9s4.032-9 9-9 9 4.032 9 9-4.032 9-9 9zm0-67c-4.968 0-9-4.032-9-9s4.032-9 9-9 9 4.032 9 9-4.032 9-9 9z" fill="#bea477"/>
<g fill="none" stroke="#bea477" stroke-width="5.7">
	<path d="m432.2 207.5c-0.051 0-0.1 4e-3 -0.15 4e-3 -13.53 0-24.5-10.969-24.5-24.5" stroke-miterlimit="10"/>
	<path d="m432.2 207.5c13.462-0.081 24.35-11.015 24.35-24.496 0-13.531-10.969-24.5-24.5-24.5-13.53 0-24.5 10.969-24.5 24.5" stroke-miterlimit="10"/>
	<line x1="421.7" x2="407.55" y1="183" y2="183"/>
	<line x1="407.55" x2="388.2" y1="183" y2="183"/>
	<path d="m432.2 233.5h-14.2c-3.424 0-6.2 2.776-6.2 6.2v40.6c0 3.425 2.776 6.2 6.2 6.2h14.2" stroke-miterlimit="10"/>
	<path d="m432.2 286.5h14.4c3.425 0 6.2-2.775 6.2-6.2v-40.6c0-3.424-2.775-6.2-6.2-6.2h-14.4" stroke-miterlimit="10"/>
	<line x1="432.2" x2="432.2" y1="233.5" y2="241"/>
	<line x1="432.2" x2="432.2" y1="233.5" y2="207.5"/>
	<line x1="432.2" x2="432.2" y1="207.5" y2="200"/>
	<path d="m432.2 367.9h-14.2c-3.424 0-6.2-2.776-6.2-6.2v-40.6c0-3.424 2.776-6.199 6.2-6.199h14.2" stroke-miterlimit="10"/>
	<path d="m432.2 367.9h14.4c3.425 0 6.2-2.776 6.2-6.2v-40.6c0-3.424-2.775-6.199-6.2-6.199h-14.4" stroke-miterlimit="10"/>
	<line x1="432.2" x2="432.2" y1="286.5" y2="281.4"/>
	<line x1="432.2" x2="432.2" y1="286.5" y2="314.9"/>
	<line x1="432.2" x2="432.2" y1="322.4" y2="314.9"/>
	<path d="m432.2 395.8h-14.2c-3.424 0-6.2 2.776-6.2 6.2v40.6c0 3.425 2.776 6.2 6.2 6.2h14.2" stroke-miterlimit="10"/>
	<path d="m432.2 395.8h14.4c3.425 0 6.2 2.776 6.2 6.2v40.6c0 3.425-2.775 6.2-6.2 6.2h-14.4" stroke-miterlimit="10"/>
	<line x1="432.2" x2="432.2" y1="395.8" y2="403.3"/>
	<line x1="432.2" x2="432.2" y1="395.8" y2="367.9"/>
	<line x1="432.2" x2="432.2" y1="367.9" y2="362.3"/>
	<path d="m432.2 473.5c-0.051 0-0.1-4e-3 -0.15-4e-3 -13.53 0-24.5 10.969-24.5 24.5s10.97 24.5 24.5 24.5c13.531 0 24.5-10.969 24.5-24.5 0-13.48-10.888-24.415-24.35-24.496" stroke-miterlimit="10"/>
	<line x1="432.2" x2="432.2" y1="442" y2="448.8"/>
	<line x1="432.2" x2="432.2" y1="473.5" y2="483"/>
	<line x1="432.2" x2="432.2" y1="473.5" y2="448.8"/>
	<path d="m29.65 158.5c-13.531 0-24.5 10.969-24.5 24.5 0 13.481 10.889 24.415 24.35 24.496 0.05 0 0.1 4e-3 0.15 4e-3 13.531 0 24.5-10.969 24.5-24.5s-10.969-24.5-24.5-24.5z"/>
	<line x1="54.15" x2="40" y1="183" y2="183"/>
	<line x1="73.5" x2="54.15" y1="183" y2="183"/>
	<path d="m43.7 233.5h-28.6c-3.424 0-6.2 2.776-6.2 6.2v40.6c0 3.425 2.776 6.2 6.2 6.2h28.6c3.424 0 6.2-2.775 6.2-6.2v-40.6c0-3.424-2.776-6.2-6.2-6.2z"/>
	<line x1="29.5" x2="29.5" y1="207.5" y2="200"/>
	<line x1="29.5" x2="29.5" y1="207.5" y2="233.5"/>
	<line x1="29.5" x2="29.5" y1="241" y2="233.5"/>
	<path d="m43.7 314.9h-28.6c-3.424 0-6.2 2.775-6.2 6.199v40.601c0 3.424 2.776 6.2 6.2 6.2h28.6c3.424 0 6.2-2.776 6.2-6.2v-40.6c0-3.424-2.776-6.2-6.2-6.2z"/>
	<line x1="29.5" x2="29.5" y1="286.5" y2="314.9"/>
	<line x1="29.5" x2="29.5" y1="314.9" y2="322.4"/>
	<line x1="29.5" x2="29.5" y1="286.5" y2="281.4"/>
	<path d="m29.5 448.8h14.2c3.424 0 6.2-2.775 6.2-6.2v-40.6c0-3.424-2.776-6.2-6.2-6.2h-14.2"/>
	<path d="m29.5 395.8h-14.4c-3.424 0-6.2 2.776-6.2 6.2v40.6c0 3.425 2.776 6.2 6.2 6.2h14.4"/>
	<line x1="29.5" x2="29.5" y1="362.3" y2="367.9"/>
	<line x1="29.5" x2="29.5" y1="395.8" y2="367.9"/>
	<line x1="29.5" x2="29.5" y1="395.8" y2="403.3"/>
	<path d="m29.5 473.5c-13.461 0.081-24.35 11.016-24.35 24.496 0 13.531 10.969 24.5 24.5 24.5s24.5-10.969 24.5-24.5-10.969-24.5-24.5-24.5c-0.05 0-0.1 4e-3 -0.15 4e-3"/>
	<line x1="29.5" x2="29.5" y1="448.8" y2="473.5"/>
	<line x1="29.5" x2="29.5" y1="448.8" y2="442"/>
	<line x1="29.5" x2="29.5" y1="473.5" y2="483"/>
</g>
</svg>
